<svg width="28" height="24" viewBox="0 0 28 24" fill="none" xmlns="http://www.w3.org/2000/svg">
<g clip-path="url(#clip0)">
<path d="M5.5 6.93312V5.0507C5.5 3.39824 6.83629 2.05692 8.48874 2.05072L18.9887 2.0113C20.65 2.00507 22 3.35003 22 5.01128V7.49357C22 8.65139 22.8371 9.63951 23.9791 9.82986C26.2255 10.2043 26.7007 13.2237 24.6779 14.2699L23.5158 14.871C22.5847 15.3525 22 16.3132 22 17.3615V19C22 20.6569 20.6569 22 19 22H8.5C6.84315 22 5.5 20.6569 5.5 19V16.71C5.5 15.6284 4.84784 14.6535 3.84812 14.2407L3.18039 13.965C0.970317 13.0524 1.25006 9.83673 3.58453 9.31947C4.70356 9.07152 5.5 8.07929 5.5 6.93312Z" stroke="black"/>
<path d="M7.8125 13H7.24609V10.8867H7.8125V13ZM7.21289 10.3398C7.21289 10.2552 7.24089 10.1855 7.29688 10.1309C7.35417 10.0762 7.43164 10.0488 7.5293 10.0488C7.62565 10.0488 7.70247 10.0762 7.75977 10.1309C7.81706 10.1855 7.8457 10.2552 7.8457 10.3398C7.8457 10.4258 7.81641 10.4961 7.75781 10.5508C7.70052 10.6055 7.62435 10.6328 7.5293 10.6328C7.43424 10.6328 7.35742 10.6055 7.29883 10.5508C7.24154 10.4961 7.21289 10.4258 7.21289 10.3398ZM8.79883 10.8867L8.81641 11.1309C8.96745 10.9421 9.16992 10.8477 9.42383 10.8477C9.64779 10.8477 9.81445 10.9134 9.92383 11.0449C10.0332 11.1764 10.0892 11.373 10.0918 11.6348V13H9.52734V11.6484C9.52734 11.5286 9.5013 11.4421 9.44922 11.3887C9.39714 11.334 9.31055 11.3066 9.18945 11.3066C9.0306 11.3066 8.91146 11.3743 8.83203 11.5098V13H8.26758V10.8867H8.79883ZM12.0332 12.2539C12.0332 12.1432 11.9941 12.0586 11.916 12C11.8379 11.9401 11.6973 11.8776 11.4941 11.8125C11.291 11.7461 11.1302 11.681 11.0117 11.6172C10.6888 11.4427 10.5273 11.2077 10.5273 10.9121C10.5273 10.7585 10.5703 10.6217 10.6562 10.502C10.7435 10.3809 10.8678 10.2865 11.0293 10.2188C11.1921 10.151 11.3743 10.1172 11.5762 10.1172C11.7793 10.1172 11.9603 10.1543 12.1191 10.2285C12.278 10.3014 12.401 10.4049 12.4883 10.5391C12.5768 10.6732 12.6211 10.8255 12.6211 10.9961H12.0352C12.0352 10.8659 11.9941 10.765 11.9121 10.6934C11.8301 10.6204 11.7148 10.584 11.5664 10.584C11.4232 10.584 11.3118 10.6146 11.2324 10.6758C11.153 10.7357 11.1133 10.8151 11.1133 10.9141C11.1133 11.0065 11.1595 11.084 11.252 11.1465C11.3457 11.209 11.4831 11.2676 11.6641 11.3223C11.9974 11.4225 12.2402 11.5469 12.3926 11.6953C12.5449 11.8438 12.6211 12.0286 12.6211 12.25C12.6211 12.4961 12.528 12.6895 12.3418 12.8301C12.1556 12.9694 11.9049 13.0391 11.5898 13.0391C11.3711 13.0391 11.1719 12.9993 10.9922 12.9199C10.8125 12.8392 10.6751 12.7292 10.5801 12.5898C10.4863 12.4505 10.4395 12.2891 10.4395 12.1055H11.0273C11.0273 12.4193 11.2148 12.5762 11.5898 12.5762C11.7292 12.5762 11.8379 12.5482 11.916 12.4922C11.9941 12.4349 12.0332 12.3555 12.0332 12.2539ZM14.248 12.7852C14.1087 12.9544 13.916 13.0391 13.6699 13.0391C13.4434 13.0391 13.2702 12.974 13.1504 12.8438C13.0319 12.7135 12.9714 12.5228 12.9688 12.2715V10.8867H13.5332V12.252C13.5332 12.472 13.6335 12.582 13.834 12.582C14.0254 12.582 14.1569 12.5156 14.2285 12.3828V10.8867H14.7949V13H14.2637L14.248 12.7852ZM17.123 11.9629C17.123 12.2884 17.0488 12.5495 16.9004 12.7461C16.7533 12.9414 16.554 13.0391 16.3027 13.0391C16.0892 13.0391 15.9167 12.9648 15.7852 12.8164V13.8125H15.2207V10.8867H15.7441L15.7637 11.0938C15.9004 10.9297 16.0788 10.8477 16.2988 10.8477C16.5592 10.8477 16.7617 10.944 16.9062 11.1367C17.0508 11.3294 17.123 11.5951 17.123 11.9336V11.9629ZM16.5586 11.9219C16.5586 11.7253 16.5234 11.5736 16.4531 11.4668C16.3841 11.36 16.2832 11.3066 16.1504 11.3066C15.9733 11.3066 15.8516 11.3743 15.7852 11.5098V12.375C15.8542 12.5143 15.9772 12.584 16.1543 12.584C16.4238 12.584 16.5586 12.3633 16.5586 11.9219ZM18.4473 13.0391C18.1374 13.0391 17.8848 12.944 17.6895 12.7539C17.4954 12.5638 17.3984 12.3105 17.3984 11.9941V11.9395C17.3984 11.7272 17.4395 11.5378 17.5215 11.3711C17.6035 11.2031 17.7194 11.0742 17.8691 10.9844C18.0202 10.8932 18.1921 10.8477 18.3848 10.8477C18.6738 10.8477 18.901 10.9388 19.0664 11.1211C19.2331 11.3034 19.3164 11.5618 19.3164 11.8965V12.127H17.9707C17.9889 12.265 18.0436 12.3757 18.1348 12.459C18.2272 12.5423 18.3438 12.584 18.4844 12.584C18.7018 12.584 18.8717 12.5052 18.9941 12.3477L19.2715 12.6582C19.1868 12.778 19.0723 12.8717 18.9277 12.9395C18.7832 13.0059 18.623 13.0391 18.4473 13.0391ZM18.3828 11.3047C18.2708 11.3047 18.1797 11.3424 18.1094 11.418C18.0404 11.4935 17.9961 11.6016 17.9766 11.7422H18.7617V11.6973C18.7591 11.5723 18.7253 11.4759 18.6602 11.4082C18.5951 11.3392 18.5026 11.3047 18.3828 11.3047ZM20.8262 11.416C20.7493 11.4056 20.6816 11.4004 20.623 11.4004C20.4095 11.4004 20.2695 11.4727 20.2031 11.6172V13H19.6387V10.8867H20.1719L20.1875 11.1387C20.3008 10.9447 20.4577 10.8477 20.6582 10.8477C20.7207 10.8477 20.7793 10.8561 20.834 10.873L20.8262 11.416Z" fill="black"/>
</g>
<defs>
<clipPath id="clip0">
<rect width="28" height="24" fill="white"/>
</clipPath>
</defs>
</svg>
