<svg width="22" height="24" viewBox="0 0 22 24" fill="none" xmlns="http://www.w3.org/2000/svg">
<path d="M16.5 22H5C3.34315 22 2 20.6569 2 19V16.9803C2 15.8271 2.82833 14.8286 3.95764 14.595C6.55899 14.0568 6.61468 10.2956 3.99686 9.84429C2.84302 9.64535 2 8.64454 2 7.47368V5C2 3.34315 3.34315 2 5 2H16.5C18.1569 2 19.5 3.34315 19.5 5L19.5 11.5V19C19.5 20.6569 18.1569 22 16.5 22Z" stroke="black"/>
<path d="M10.05 11.1429C10.4361 11.1429 10.75 10.8225 10.75 10.4286C10.75 10.0346 10.4361 9.71429 10.05 9.71429C9.66391 9.71429 9.35 10.0346 9.35 10.4286C9.35 10.8225 9.66391 11.1429 10.05 11.1429ZM14.95 11.1429C15.3361 11.1429 15.65 10.8225 15.65 10.4286C15.65 10.0346 15.3361 9.71429 14.95 9.71429C14.5639 9.71429 14.25 10.0346 14.25 10.4286C14.25 10.8225 14.5639 11.1429 14.95 11.1429ZM15.3 11.5H14.6C14.4075 11.5 14.2336 11.5792 14.1067 11.7076C14.5475 11.9542 14.8603 12.3996 14.9281 12.9286H15.65C15.8436 12.9286 16 12.769 16 12.5714V12.2143C16 11.8203 15.6861 11.5 15.3 11.5ZM12.5 11.5C13.177 11.5 13.725 10.9408 13.725 10.25C13.725 9.55915 13.177 9 12.5 9C11.823 9 11.275 9.55915 11.275 10.25C11.275 10.9408 11.823 11.5 12.5 11.5ZM13.34 11.8571H13.2492C13.0217 11.9688 12.7691 12.0357 12.5 12.0357C12.2309 12.0357 11.9794 11.9688 11.7508 11.8571H11.66C10.9644 11.8571 10.4 12.433 10.4 13.1429V13.4643C10.4 13.76 10.6352 14 10.925 14H14.075C14.3648 14 14.6 13.76 14.6 13.4643V13.1429C14.6 12.433 14.0356 11.8571 13.34 11.8571ZM10.8933 11.7076C10.7664 11.5792 10.5925 11.5 10.4 11.5H9.7C9.31391 11.5 9 11.8203 9 12.2143V12.5714C9 12.769 9.15641 12.9286 9.35 12.9286H10.0708C10.1397 12.3996 10.4525 11.9542 10.8933 11.7076Z" fill="#225668"/>
</svg>
