<svg width="21" height="24" viewBox="0 0 21 24" fill="none" xmlns="http://www.w3.org/2000/svg">
<path d="M5 2H16.5C18.1569 2 19.5 3.34315 19.5 5V7.01969C19.5 8.17291 18.6717 9.17138 17.5424 9.40503C14.941 9.94324 14.8853 13.7044 17.5031 14.1557C18.657 14.3547 19.5 15.3555 19.5 16.5263V19C19.5 20.6569 18.1569 22 16.5 22H5C3.34315 22 2 20.6569 2 19V12.5V5C2 3.34315 3.34315 2 5 2Z" stroke="black"/>
<path d="M7.71429 10.3125V9.6875C7.71429 9.58438 7.78661 9.5 7.875 9.5H8.41071C8.49911 9.5 8.57143 9.58438 8.57143 9.6875V10.3125C8.57143 10.4156 8.49911 10.5 8.41071 10.5H7.875C7.78661 10.5 7.71429 10.4156 7.71429 10.3125ZM9.58929 10.5H10.125C10.2134 10.5 10.2857 10.4156 10.2857 10.3125V9.6875C10.2857 9.58438 10.2134 9.5 10.125 9.5H9.58929C9.50089 9.5 9.42857 9.58438 9.42857 9.6875V10.3125C9.42857 10.4156 9.50089 10.5 9.58929 10.5ZM7.875 12H8.41071C8.49911 12 8.57143 11.9156 8.57143 11.8125V11.1875C8.57143 11.0844 8.49911 11 8.41071 11H7.875C7.78661 11 7.71429 11.0844 7.71429 11.1875V11.8125C7.71429 11.9156 7.78661 12 7.875 12ZM9.58929 12H10.125C10.2134 12 10.2857 11.9156 10.2857 11.8125V11.1875C10.2857 11.0844 10.2134 11 10.125 11H9.58929C9.50089 11 9.42857 11.0844 9.42857 11.1875V11.8125C9.42857 11.9156 9.50089 12 9.58929 12ZM8.57143 13.3125V12.6875C8.57143 12.5844 8.49911 12.5 8.41071 12.5H7.875C7.78661 12.5 7.71429 12.5844 7.71429 12.6875V13.3125C7.71429 13.4156 7.78661 13.5 7.875 13.5H8.41071C8.49911 13.5 8.57143 13.4156 8.57143 13.3125ZM9.58929 13.5H10.125C10.2134 13.5 10.2857 13.4156 10.2857 13.3125V12.6875C10.2857 12.5844 10.2134 12.5 10.125 12.5H9.58929C9.50089 12.5 9.42857 12.5844 9.42857 12.6875V13.3125C9.42857 13.4156 9.50089 13.5 9.58929 13.5ZM12 15.4375V16H6V15.4375C6 15.3344 6.07232 15.25 6.16071 15.25H6.42188V8.375C6.42188 8.16719 6.56518 8 6.7433 8H11.2567C11.4348 8 11.5781 8.16719 11.5781 8.375V15.25H11.8393C11.9277 15.25 12 15.3344 12 15.4375ZM7.06473 15.2344H8.57143V14.1875C8.57143 14.0844 8.64375 14 8.73214 14H9.26786C9.35625 14 9.42857 14.0844 9.42857 14.1875V15.2344H10.9353V8.76562L7.07143 8.75L7.06473 15.2344Z" fill="black"/>
</svg>
